<svg xmlns="http://www.w3.org/2000/svg" version="1.1" xmlns:xlink="http://www.w3.org/1999/xlink" xmlns:svgjs="http://svgjs.com/svgjs" width="1920" height="1080" preserveAspectRatio="none" viewBox="0 0 1920 1080">
    <g mask="url(&quot;#SvgjsMask1057&quot;)" fill="none">
        <path d="M1480.0134661886261 143.42092431692407L1507.0569871856126 26.282565562780462 1317.827688555904 44.286463444372686z" fill="rgba(40, 167, 69, 0.45)" class="triangle-float1"></path>
        <path d="M1820.513839042791 596.8778167566237L1781.3041358033472 798.5942530221081 1983.0205720688316 837.8039562615519 2022.2302753082754 636.0875199960675z" fill="rgba(40, 167, 69, 0.45)" class="triangle-float2"></path>
        <path d="M98.5022362343342 264.6832860386301L331.5981484175453 264.9054314783972 232.812089289023 86.69066325547624z" fill="rgba(40, 167, 69, 0.45)" class="triangle-float3"></path>
        <path d="M189.778,1032.864C278.852,1033.703,337.135,948.619,378.197,869.569C415.372,798.001,430.844,714.716,391.646,644.236C351.435,571.934,272.472,533.251,189.778,530.779C102.098,528.158,7.774,554.449,-34.139,631.507C-74.804,706.272,-34.059,791.753,7.406,866.077C50.423,943.183,101.488,1032.032,189.778,1032.864" fill="rgba(40, 167, 69, 0.45)" class="triangle-float2"></path>
        <path d="M858.42,1201.143C944.353,1201.177,1034.184,1175.43,1077.106,1100.984C1119.993,1026.598,1097.763,935.685,1054.097,861.753C1011.311,789.312,942.552,731.066,858.42,730.728C773.783,730.388,703.018,787.278,660.004,860.171C616.162,934.468,596.647,1026.248,640.036,1100.811C683.22,1175.022,772.559,1201.109,858.42,1201.143" fill="rgba(40, 167, 69, 0.45)" class="triangle-float2"></path>
        <path d="M88.298,107.054C121.979,105.378,146.859,79.578,163.818,50.429C180.903,21.063,192.296,-14,176.105,-43.868C159.305,-74.859,123.548,-88.492,88.298,-88.882C52.26,-89.281,15.795,-76.637,-2.938,-45.848C-22.345,-13.95,-20.596,26.588,-1.464,58.652C17.205,89.939,51.909,108.864,88.298,107.054" fill="rgba(40, 167, 69, 0.45)" class="triangle-float1"></path>
        <path d="M763.9828573973382 854.4719565062697L574.085968855059 871.085781492565 693.9551506056416 1147.6242018128362z" fill="rgba(40, 167, 69, 0.45)" class="triangle-float1"></path>
        <path d="M1559.865,449.685C1649.596,447.043,1733.845,408.307,1782.242,332.7C1834.929,250.391,1856.692,145.773,1809.008,60.468C1760.371,-26.542,1659.241,-72.926,1559.865,-65.128C1471.52,-58.196,1415.839,18.844,1370.341,94.889C1323.03,173.965,1270.172,265.219,1313.59,346.498C1358.538,430.642,1464.509,452.492,1559.865,449.685" fill="rgba(40, 167, 69, 0.45)" class="triangle-float3"></path>
    </g>
    <defs>
        <mask id="SvgjsMask1057">
            <rect width="1920" height="1080" fill="#ffffff"></rect>
        </mask>
        <style>
            @keyframes float1 {
                0%{transform: translate(0, 0)}
                50%{transform: translate(-10px, 0)}
                100%{transform: translate(0, 0)}
            }

            .triangle-float1 {
                animation: float1 5s infinite;
            }

            @keyframes float2 {
                0%{transform: translate(0, 0)}
                50%{transform: translate(-5px, -5px)}
                100%{transform: translate(0, 0)}
            }

            .triangle-float2 {
                animation: float2 4s infinite;
            }

            @keyframes float3 {
                0%{transform: translate(0, 0)}
                50%{transform: translate(0, -10px)}
                100%{transform: translate(0, 0)}
            }

            .triangle-float3 {
                animation: float3 6s infinite;
            }
        </style>
    </defs>
</svg>